<svg xmlns="http://www.w3.org/2000/svg" viewBox="0 0 1600 760" role="img" aria-label="Warm diner breakfast table with pancakes eggs sausage pie and coffee mug"><defs><linearGradient id="wood" x1="0" x2="1"><stop offset="0" stop-color="#f7efe0"/><stop offset=".42" stop-color="#efe0c8"/><stop offset=".43" stop-color="#8a5732"/><stop offset="1" stop-color="#2d1c12"/></linearGradient><radialGradient id="glow" cx="70%" cy="38%" r="60%"><stop offset="0" stop-color="#fff0b8" stop-opacity=".9"/><stop offset=".45" stop-color="#c77a2c" stop-opacity=".4"/><stop offset="1" stop-color="#160d08" stop-opacity=".3"/></radialGradient><filter id="soft" x="-20%" y="-20%" width="140%" height="140%"><feGaussianBlur stdDeviation="8"/></filter><filter id="shadow"><feDropShadow dx="0" dy="18" stdDeviation="18" flood-color="#241107" flood-opacity=".28"/></filter></defs><rect width="1600" height="760" fill="url(#wood)"/><rect width="760" height="760" fill="#fbf5e8" opacity=".96"/><g opacity=".18" stroke="#6f563f" stroke-width="2"><path d="M0 82h770M0 164h770M0 248h770M0 333h770M0 421h770M0 509h770M0 596h770M0 684h770"/><path d="M53 0c-20 190 42 348-8 760M188 0c28 212-35 388 10 760M343 0c-40 250 35 455-12 760M535 0c25 220-50 396 4 760M696 0c-32 255 26 430-10 760"/></g><rect x="690" y="0" width="910" height="760" fill="url(#glow)"/><g opacity=".34" filter="url(#soft)"><circle cx="1120" cy="115" r="30" fill="#ffd47d"/><circle cx="1280" cy="92" r="22" fill="#fff1bd"/><circle cx="1425" cy="145" r="28" fill="#ffd47d"/></g><ellipse cx="1110" cy="595" rx="430" ry="90" fill="#190e08" opacity=".34" filter="url(#soft)"/><ellipse cx="1095" cy="540" rx="440" ry="158" fill="#fff8ec" filter="url(#shadow)"/><ellipse cx="1095" cy="540" rx="378" ry="124" fill="#f3e3cc"/><g filter="url(#shadow)"><ellipse cx="1010" cy="405" rx="150" ry="48" fill="#d98b31"/><ellipse cx="1016" cy="379" rx="154" ry="48" fill="#e6a246"/><ellipse cx="1010" cy="353" rx="150" ry="45" fill="#f0ba60"/><path d="M940 340c80 33 175 27 223-4" fill="none" stroke="#a7531a" stroke-width="7" opacity=".28"/><rect x="990" y="310" width="72" height="58" rx="10" fill="#ffe39a" transform="rotate(-4 1026 339)"/><path d="M875 355c95 62 205 56 300 0" fill="none" stroke="#bd631e" stroke-width="20" stroke-linecap="round" opacity=".28"/></g><g filter="url(#shadow)"><ellipse cx="1222" cy="460" rx="105" ry="62" fill="#fff9e8"/><circle cx="1210" cy="455" r="35" fill="#ffc631"/><ellipse cx="1360" cy="462" rx="105" ry="62" fill="#fff9e8"/><circle cx="1348" cy="456" r="35" fill="#ffc631"/><g fill="#8b3f18"><rect x="986" y="482" width="265" height="38" rx="20" transform="rotate(4 1118 501)"/><rect x="1000" y="524" width="280" height="39" rx="20" transform="rotate(-3 1140 543)"/><rect x="1018" y="565" width="246" height="37" rx="19" transform="rotate(2 1140 583)"/></g></g><g filter="url(#shadow)"><ellipse cx="1320" cy="250" rx="145" ry="68" fill="#fff7ee"/><path d="M1210 248c55-88 176-84 232 0 18 27-3 54-40 58l-140 12c-50 4-76-34-52-70z" fill="#8b3b24"/><path d="M1215 226c84 35 153 35 220-5" fill="none" stroke="#fff7ee" stroke-width="46" stroke-linecap="round"/><path d="M1240 199c60 32 121 29 171 0" fill="none" stroke="#6a2d1b" stroke-width="9" stroke-linecap="round" opacity=".42"/></g><g filter="url(#shadow)"><rect x="1410" y="126" width="138" height="216" rx="34" fill="#ead7b8"/><ellipse cx="1479" cy="125" rx="66" ry="22" fill="#fff5e7"/><ellipse cx="1479" cy="124" rx="45" ry="12" fill="#5c351f"/><text x="1479" y="225" text-anchor="middle" font-family="Arial Black, Impact, sans-serif" font-size="32" fill="#1e3a23">TRACKSIDE</text><text x="1479" y="267" text-anchor="middle" font-family="Arial Black, Impact, sans-serif" font-size="36" fill="#1e3a23">CAFÉ</text></g><rect x="718" y="0" width="188" height="760" fill="url(#wood)" opacity=".55"/><rect x="0" y="0" width="1600" height="760" fill="none" stroke="#fffaf0" stroke-width="20" opacity=".38"/></svg>