<svg xmlns="http://www.w3.org/2000/svg" viewBox="0 0 1200 760" role="img" aria-label="Trackside Cafe background illustration">
  <defs>
    <linearGradient id="sky" x1="0" x2="0" y1="0" y2="1">
      <stop offset="0" stop-color="#f5d7a5"/>
      <stop offset="0.58" stop-color="#f7ead3"/>
      <stop offset="1" stop-color="#d0b48b"/>
    </linearGradient>
    <linearGradient id="brick" x1="0" x2="1">
      <stop offset="0" stop-color="#7d3529"/>
      <stop offset="1" stop-color="#b4573c"/>
    </linearGradient>
    <linearGradient id="rail" x1="0" x2="1">
      <stop offset="0" stop-color="#322117"/>
      <stop offset="1" stop-color="#6a4a32"/>
    </linearGradient>
    <filter id="soft" x="-20%" y="-20%" width="140%" height="140%">
      <feGaussianBlur stdDeviation="7"/>
    </filter>
  </defs>
  <rect width="1200" height="760" fill="url(#sky)"/>
  <circle cx="925" cy="142" r="92" fill="#f7c760" opacity=".55" filter="url(#soft)"/>
  <path d="M0 495 C160 438 280 470 420 430 C580 384 740 424 900 365 C1040 315 1135 345 1200 326 V760 H0Z" fill="#80664b" opacity=".25"/>
  <path d="M0 560 C205 515 320 532 470 490 C630 445 805 476 965 420 C1080 380 1160 396 1200 370 V760 H0Z" fill="#634832" opacity=".35"/>
  <g opacity=".48">
    <path d="M100 600 L1110 455" stroke="#2d2017" stroke-width="18" stroke-linecap="round"/>
    <path d="M110 648 L1130 503" stroke="#2d2017" stroke-width="18" stroke-linecap="round"/>
    <path d="M150 642 L116 588 M248 628 L214 574 M346 614 L312 560 M444 600 L410 546 M542 586 L508 532 M640 572 L606 518 M738 558 L704 504 M836 544 L802 490 M934 530 L900 476 M1032 516 L998 462" stroke="#4c3423" stroke-width="16" stroke-linecap="round"/>
  </g>
  <g transform="translate(115 270)">
    <rect x="0" y="120" width="365" height="210" rx="18" fill="url(#brick)"/>
    <path d="M-20 130 L185 0 L390 130 Z" fill="#5b2c20"/>
    <path d="M28 150 H332 V190 H28Z" fill="#f8edd4" opacity=".9"/>
    <text x="180" y="180" text-anchor="middle" font-family="Georgia,serif" font-size="36" font-weight="900" fill="#2b1c15">TRACKSIDE</text>
    <rect x="48" y="220" width="80" height="110" rx="8" fill="#2f2019"/>
    <rect x="158" y="220" width="155" height="72" rx="8" fill="#f8d88d" opacity=".82"/>
    <rect x="172" y="234" width="54" height="44" fill="#3b2519" opacity=".45"/>
    <rect x="244" y="234" width="54" height="44" fill="#3b2519" opacity=".45"/>
  </g>
  <g transform="translate(660 415)">
    <rect x="0" y="25" width="350" height="95" rx="22" fill="#f7ead3" stroke="#2b1c15" stroke-width="8"/>
    <rect x="0" y="58" width="350" height="38" fill="#9f2e25" opacity=".92"/>
    <rect x="35" y="42" width="58" height="32" rx="5" fill="#38231a" opacity=".7"/>
    <rect x="112" y="42" width="58" height="32" rx="5" fill="#38231a" opacity=".7"/>
    <rect x="189" y="42" width="58" height="32" rx="5" fill="#38231a" opacity=".7"/>
    <circle cx="72" cy="125" r="28" fill="#21150f" stroke="#d69f32" stroke-width="8"/>
    <circle cx="258" cy="125" r="28" fill="#21150f" stroke="#d69f32" stroke-width="8"/>
    <path d="M350 72 C410 70 450 86 486 122" fill="none" stroke="#f7ead3" stroke-width="24" stroke-linecap="round" opacity=".42"/>
    <path d="M352 52 C430 38 470 54 525 96" fill="none" stroke="#fff8eb" stroke-width="16" stroke-linecap="round" opacity=".38"/>
  </g>
  <rect width="1200" height="760" fill="#3b2417" opacity=".08"/>
</svg>
